# xmcd
#
# Track frame offsets:
#	150
#	24206
#	40264
#	51312
#	58235
#	70587
#
# Disc length: 1177 seconds
#
# Revision: 1
# Processed by: cddbd v1.5.1PL2 Copyright (c) Steve Scherf et al.
# Submitted via: audiograbber 1.83.01
#
DISCID=4b049706
DTITLE=Zac Brown - Far From Einstein
DYEAR=1900
DGENRE=Southern Rock
TTITLE0=Big Fat Bitch(Original)
TTITLE1=Curse Me (Original)
TTITLE2=Valentines (Original)
TTITLE3=A Tribute To Robert Service (Original)
TTITLE4=Whatever It Is (Original)
TTITLE5=A Tale Of Island Drums
EXTD=
EXTT0=
EXTT1=
EXTT2=
EXTT3=
EXTT4=
EXTT5=
PLAYORDER=
